<!-- AFA_0001.svg
Archivo del Film Automatico
editor.p5js.org/AFA/full/gMMd7vZn9
Javier de Azkue 2024

SOURCE CODE
function setup(){createCanvas(384,240);}function draw(){background(0);translate(0,35);stroke(255);noFill();let w=width,t=millis(),min=0.1,max=3,offset=-11;t=t/430.0;for(let i=30;i<=height-110;i+=10){beginShape();for(let x=0;x<=w+6;x+=2){let frq=map(x,0,w,min,max),y=sin((x/frq)+t)*15,frac=6;if(x>w/2)frac=12;if((i<50||i>110)&&x%frac==0){vertex(x,y+i);}if(x>0&&i>30&&i<50){if(x%140==0){let x2=x+offset,frq2=map(x2,0,w,min,max),y2=sin((x2/frq2)+t)*15;line(x2,y2+i,x2,(y2+i)+80);}}if((i==130||i==40)&&int(x/10)%2==0){{if(x>w/2-x/2&&x<w+5){if(x%5==0){let x2=x-3+offset,frq2=map(x2,0,w,min,max),y2=sin((x2/frq2)+t)*15;line(x2,y2+i,x2,(y2+i)-10);x2=x+3+offset;frq2=map(x2,0,w,min,max);y2=sin((x2/frq2)+t)*15;line(x2,y2+i,x2,(y2+i)-10);}}}}}endShape();}}

URL+SVG
data:image/svg+xml,<svg... --> <svg xmlns="http://www.w3.org/2000/svg" viewBox="0 0 384 240"><path d="M0 0h384v240H0z"/><g fill="none" stroke="white"><path d="m0 64 6 8.4 6-10.1 6-9.6 6 20.4 6 2.9 6-18.4 6 4.3 6 5.7 6 3.4 6-20.8 6 20.6 6 8.1 6-16.3 6-12.2 6 4.4 6 13 6 10 6 1.9 6-5.2 6-8.6 6-8.1 6-5.6 6-2.2 6 1 6 3.4 6 4.7 6 5.1 6 5 6 4.2 6 3.2 6 2.1 6 1.1 12-.5 12-3.2 12-4.5 12-5 12-4.6 12-4 12-3.2 12-2.4 12-1.5 12-.7 12-.2 12 .4 12 .7 12 1 12 1.3 12 1.5m-255 9.7v80m-3-76.8v-10m6 4.4v-10m14 9.7v-10m6 14v-10m14 21.7v-10m6 14.5v-10m14 16.6v-10m6 11.1v-10m14 9.1v-10m6 8.5v-10m14 5v-10m6 7.6V70m14 4.3v-10m6 7.7V62m17 4.5v80m-3-79.1v-10m6 8.3v-10m14 7.1v-10m6 9v-10m14 8.7v-10m6 9.7v-10m14 9.8V50m6 10.2v-10M346 61V51m6 10.4v-10m14 11.4v-10m6 10.6v-10"/><path d="m0 74 6 8.4 6-10.1 6-9.6 6 20.4 6 2.9 6-18.4 6 4.3 6 5.7 6 3.4 6-20.8 6 20.6 6 8.1 6-16.3 6-12.2 6 4.4 6 13 6 10 6 1.9 6-5.2 6-8.6 6-8.1 6-5.6 6-2.2 6 1 6 3.4 6 4.7 6 5.1 6 5 6 4.2 6 3.2 6 2.1 6 1.1 12-.5 12-3.2 12-4.5 12-5 12-4.6 12-4 12-3.2 12-2.4 12-1.5 12-.7 12-.2 12 .4 12 .7 12 1 12 1.3 12 1.5M0 154l6 8.3 6-10.1 6-9.6 6 20.4 6 2.9 6-18.4 6 4.3 6 5.7 6 3.4 6-20.8 6 20.6 6 8.1 6-16.3 6-12.2 6 4.4 6 13 6 10 6 1.9 6-5.2 6-8.6 6-8.1 6-5.6 6-2.2 6 1 6 3.4 6 4.7 6 5.1 6 5 6 4.2 6 3.2 6 2.1 6 1.1 12-.5 12-3.2 12-4.5 12-5 12-4.6 12-4 12-3.2 12-2.4 12-1.5 12-.7 12-.2 12 .4 12 .7 12 1 12 1.3 12 1.5m-258 13v-10m6 4.4v-10m14 9.7v-10m6 14v-10m14 21.7v-10m6 14.5v-10m14 16.6v-10m6 11.1v-10m14 9.1v-10m6 8.5v-10m14 5v-10m6 7.5V160m14 4.3v-10m6 7.7v-10m14 5.4v-10m6 8.3v-10m14 7.1v-10m6 9v-10m14 8.7v-10m6 9.7v-10m14 9.8v-10m6 10.2v-10m14 10.8v-10m6 10.4v-10m14 11.4v-10m6 10.6v-10"/><path d="m0 164 6 8.4 6-10.1 6-9.6 6 20.4 6 2.9 6-18.4 6 4.3 6 5.7 6 3.4 6-20.8 6 20.6 6 8.1 6-16.3 6-12.2 6 4.4 6 13 6 10 6 1.9 6-5.2 6-8.6 6-8.1 6-5.6 6-2.2 6 1 6 3.4 6 4.7 6 5.1 6 5 6 4.2 6 3.2 6 2.1 6 1.1 12-.5 12-3.2 12-4.5 12-5 12-4.6 12-4 12-3.2 12-2.4 12-1.5 12-.7 12-.2 12 .4 12 .7 12 1 12 1.3 12 1.5"/></g><text x="6" y="10" fill="white" font-size="5" font-family="Arial">QR Code: False</text></svg>